{
	"asset":{
		"generator":"Khronos glTF Blender I/O v4.4.55",
		"version":"2.0"
	},
	"extensionsUsed":[
		"KHR_materials_unlit"
	],
	"scene":0,
	"scenes":[
		{
			"name":"Scene",
			"nodes":[
				0
			]
		}
	],
	"nodes":[
		{
			"mesh":0,
			"name":"Plane.003",
			"rotation":[
				0.5819439888000488,
				0.40167301893234253,
				-0.40167301893234253,
				0.5819439888000488
			],
			"translation":[
				0.032623130828142166,
				0,
				-0.0789756327867508
			]
		}
	],
	"materials":[
		{
			"alphaMode":"BLEND",
			"doubleSided":true,
			"extensions":{
				"KHR_materials_unlit":{}
			},
			"name":"Material.002",
			"pbrMetallicRoughness":{
				"baseColorTexture":{
					"index":0
				},
				"metallicFactor":0,
				"roughnessFactor":0.9
			}
		}
	],
	"meshes":[
		{
			"name":"Plane.003",
			"primitives":[
				{
					"attributes":{
						"POSITION":0,
						"NORMAL":1,
						"TEXCOORD_0":2
					},
					"indices":3,
					"material":0
				}
			]
		}
	],
	"textures":[
		{
			"sampler":0,
			"source":0
		}
	],
	"images":[
		{
			"mimeType":"image/png",
			"name":"FlowerBell",
			"uri":"FlowerBell.png"
		}
	],
	"accessors":[
		{
			"bufferView":0,
			"componentType":5126,
			"count":12,
			"max":[
				1,
				1.0133109092712402,
				-0.001866779988631606
			],
			"min":[
				-1,
				-0.856698751449585,
				-2.0018668174743652
			],
			"type":"VEC3"
		},
		{
			"bufferView":1,
			"componentType":5126,
			"count":12,
			"type":"VEC3"
		},
		{
			"bufferView":2,
			"componentType":5126,
			"count":12,
			"type":"VEC2"
		},
		{
			"bufferView":3,
			"componentType":5123,
			"count":18,
			"type":"SCALAR"
		}
	],
	"bufferViews":[
		{
			"buffer":0,
			"byteLength":144,
			"byteOffset":0,
			"target":34962
		},
		{
			"buffer":0,
			"byteLength":144,
			"byteOffset":144,
			"target":34962
		},
		{
			"buffer":0,
			"byteLength":96,
			"byteOffset":288,
			"target":34962
		},
		{
			"buffer":0,
			"byteLength":36,
			"byteOffset":384,
			"target":34963
		}
	],
	"samplers":[
		{
			"magFilter":9729,
			"minFilter":9987
		}
	],
	"buffers":[
		{
			"byteLength":420,
			"uri":"FlowerBell.bin"
		}
	]
}
