<svg width="134" height="40" viewBox="0 0 134 40" fill="none" xmlns="http://www.w3.org/2000/svg">
<g clip-path="url(#clip0_2818_5310)">
<!--  Oeil 2 -->
<path d="M85.1086 34.6021V33.1952H78.7612V31.6111H75.7592V30.027H72.591V28.443H71.0069V26.8589H69.4118L69.4228 25.452H68.0049V16.1248H69.4228L69.4118 14.5407L71.0069 14.5518V12.9566L72.591 12.9677V11.3836H75.7592V9.79956H78.7612V8.39272H83.5245V6.80864H92.8628V5.22456H106.787V6.80864H116.137V8.39272H120.723V9.79956H125.475V11.3836H126.893V12.9677H130.061V16.1248H131.645V19.1157L133.24 19.2265V20.6998H131.645V25.452H130.061V26.8589H128.477V28.443H126.893V30.027H123.891V31.6111H120.723V33.1952H114.553V34.6021H85.1086Z" fill="#F4FFF6"/>
<path d="M89.3544 30V28.689H88.0434V27.378H86.7206V26.067H85.4096V22.1339H84.0985V19.5119H85.4096V15.5906H86.7206V14.2796H88.0434V12.9686H89.3544V11.6576H93.4883V10.1576H96.1103V11.6576H100.055V12.9686H101.378L101.366 14.2796H102.689V15.5906H104V26.067H102.689V27.378H101.366L101.378 28.689H100.055V30H89.3544Z" fill="#000B04"/>
<!--  Oeil 1 -->
<path d="M17.1048 34.6021V33.1952H10.9346V31.6111H7.76644V30.027H4.5872V28.443H3.18035V26.8589H1.59628V25.452H0.00112232V16.1248H1.59628V14.5407L3.18035 14.5518V12.9566L4.5872 12.9677V11.3836H7.76644V9.79956H10.9346V8.39272H15.5207V6.80864H24.859V5.22456H38.7945V6.80864H48.1328V8.39272H52.8961V9.79956H57.4822V11.3836H59.0663V12.9677H62.0572V16.1248H63.6523V25.452H62.0572L62.0683 26.8589H60.6503V28.443H59.0663V30.027H55.887V31.6111H52.8961V33.1952H46.5487V34.6021H17.1048Z" fill="#F4FFF6"/>
<path d="M21.3656 30V28.689H20.0546V27.378H18.7435V26.067H17.4207V22.1339H16.1097V19.5119H17.4207V15.5906H18.7435V14.2796H20.0546V12.9686H21.3656V11.6576H25.3104V10.1576H28.1332V11.6576H32.0663V12.9686H33.3891V14.2796H34.7001V15.5906H36.0112V19.5119L37.334 19.63V20.8229H36.0112V26.067H34.7001V27.378H33.3891V28.689H32.0663V30H21.3656Z" fill="#000B04"/>
</g>
<defs>
<clipPath id="clip0_2818_5310">
<rect width="133.333" height="40" fill="white" transform="matrix(-1 0 0 -1 133.334 40)"/>
</clipPath>
</defs>
</svg>
