<svg width="134" height="40" viewBox="0 0 134 40" fill="none" xmlns="http://www.w3.org/2000/svg">
    <g clip-path="url(#clip0_2818_5309)">
        <!--  Oeil 1  -->
        <path d="M48.2254 5.39795V6.80479H54.5728V8.38887H57.5748V9.97295H60.743V11.557H62.3271V13.1411H63.9222L63.9111 14.548H65.3291V23.8752H63.9111L63.9222 25.4593L62.3271 25.4482V27.0434L60.743 27.0323V28.6164H57.5748V30.2004H54.5728V31.6073H49.8095V33.1914H40.4712V34.7754H26.5468V33.1914H17.1974V31.6073H12.6113V30.2004H7.85907V28.6164H6.44115V27.0323H3.27299V23.8752H1.68891V20.8843L0.09375 20.7735V19.3002H1.68891V14.548H3.27299V13.1411H4.85707V11.557H6.44115V9.97295H9.44315V8.38887H12.6113V6.80479H18.7815V5.39795H48.2254Z" fill="#F4FFF6"/>
        <path d="M43.9796 10V11.311H45.2906V12.622H46.6134V13.933H47.9244V17.8661H49.2354V20.4881H47.9244V24.4094H46.6134V25.7204H45.2906V27.0314H43.9796V28.3424H39.8457V29.8424H37.2237V28.3424H33.2788V27.0314H31.956L31.9678 25.7204H30.645V24.4094H29.334V13.933H30.645V12.622H31.9678L31.956 11.311H33.2788V10H43.9796Z" fill="#000B04"/>
        <!--  Oeil 2  -->
        <path d="M116.229 5.39795V6.80479H122.399V8.38887H125.568V9.97295H128.747V11.557H130.154V13.1411H131.738V14.548H133.333V23.8752H131.738V25.4593L130.154 25.4482V27.0434L128.747 27.0323V28.6164H125.568V30.2004H122.399V31.6073H117.813V33.1914H108.475V34.7754H94.5395V33.1914H85.2012V31.6073H80.4379V30.2004H75.8518V28.6164H74.2677V27.0323H71.2768V23.8752H69.6816V14.548H71.2768L71.2657 13.1411H72.6836V11.557H74.2677V9.97295H77.447V8.38887H80.4379V6.80479H86.7853V5.39795H116.229Z" fill="#F4FFF6"/>
        <path d="M111.968 10V11.311H113.279V12.622H114.59V13.933H115.913V17.8661H117.224V20.4881H115.913V24.4094H114.59V25.7204H113.279V27.0314H111.968V28.3424H108.024V29.8424H105.201V28.3424H101.268V27.0314H99.9449V25.7204H98.6338V24.4094H97.3228V20.4881L96 20.37V19.1771H97.3228V13.933H98.6338V12.622H99.9449V11.311H101.268V10H111.968Z" fill="#000B04"/>
    </g>
    <defs>
        <clipPath id="clip0_2818_5309">
            <rect width="133.333" height="40" fill="white"/>
        </clipPath>
    </defs>
</svg>
