<svg width="38" height="70" viewBox="0 0 38 70" fill="none" xmlns="http://www.w3.org/2000/svg">
<path d="M18.9543 35.0053C28.2469 35.0053 35.778 27.1662 35.778 17.5C35.778 7.83384 28.2418 0 18.9492 0C9.65656 0 2.12547 7.83384 2.12547 17.5C2.12547 27.1662 9.65656 35.0053 18.9492 35.0053H18.9543ZM18.9798 13.6229C21.0324 13.6229 22.6968 15.3543 22.6968 17.4894C22.6968 19.6244 21.0324 21.3558 18.9798 21.3558C16.9324 21.3558 15.2679 19.6297 15.2628 17.5C15.2577 15.3649 16.9119 13.6282 18.9645 13.6229H18.9798Z" fill="#F9FFFB"/>
<path d="M37.9633 57.9067C37.8816 56.7011 37.6161 50.0144 28.6043 46.9606C19.904 44.0076 5.88336 39.6419 5.88336 39.6419C5.88336 39.6419 3.53468 38.9886 3.17727 37.0182C2.80965 35 5.48511 33.4439 5.94463 33.1995L6.24077 33.0349L6.08249 32.7694L5.6587 32.9818C4.92857 33.3695 -0.463183 36.4393 0.0320826 43.8323C0.113776 45.0486 0.384387 51.7352 9.39106 54.7678C18.0965 57.7208 32.1171 62.0865 32.1171 62.0865C32.1171 62.0865 34.3739 62.846 34.8793 64.6889C35.538 67.1108 32.209 69.0228 31.5504 69.3839L30.8815 69.7238L31.0653 70L31.7495 69.6548C32.689 69.198 38.5147 66.0486 37.9633 57.9014V57.9067Z" fill="#F9FFFB"/>
</svg>
