<?xml version="1.0" encoding="UTF-8"?>
<svg id="Layer_2" data-name="Layer 2" xmlns="http://www.w3.org/2000/svg" viewBox="0 0 582.46 461.54">
  <defs>
    <style>
      .cls-1 {
        fill: #fff;
      }
    </style>
  </defs>
  <g id="Calque_3" data-name="Calque 3">
    <g>
      <polygon class="cls-1" points="47.44 200.89 24.49 200.89 0 355.35 99.51 355.35 102.6 335.27 26.04 335.27 47.44 200.89"/>
      <path class="cls-1" d="M569.09,191.5l-2.68,18.19-18.18-2.67,1.33-9.1-36.37-5.35,1.34-9.09-9.09-1.34,2.67-18.18-18.18-2.68h0c-3.03-.42-6.06-.91-9.09-1.33.24-1.51.42-3.04.66-4.55l9.1,1.34.67-4.55,27.27,4.01,1.34-9.09,27.28,4.01-1.34,9.09,9.09,1.34-1.33,9.09,9.09,1.34-2.68,18.19,9.1,1.33Z"/>
      <path class="cls-1" d="M437.11,204.61l-4.54-.66-1.34,9.09c-1.51-.2-3.03-.46-4.54-.67l2-13.58-4.55-.67-2,13.64,4.53.67-.66,4.49-9.09-1.34-2.34,15.92-2.27-.34-.33,2.28-2.28-.34-.67,4.55-4.54-.67.66-4.55-2.27-.33.34-2.28-2.28-.33.67-4.55-2.27-.33.33-2.28-2.27-.33.67-4.55-2.28-.33.34-2.27-4.55-.67.34-2.28-4.55-.66.34-2.28-22.73-3.34-.33,2.27h-.01l-4.54-.66-.33,2.27h-.01l-4.54-.67-.33,2.27h-.01s-2.27-.33-2.27-.33l-.33,2.27h-.01l-3.14-.46-1.4-.21-.33,2.28-2.28-.34-.33,2.28-2.27-.34-.67,4.55-2.27-.34-.34,2.28-1.89-.28-.38-.06-.33,2.28-.37-.06h0s-1.91-.27-1.91-.27l-.67,4.54h-.07s-2.2-.33-2.2-.33l-.33,2.27h-.01l-2.27-.33-.67,4.54-2.27-.33-1,6.82,2.27.33.67-4.54,4.55.66.33-2.27,2.28.34.33-2.28,6.82,1,.33-2.27,9.09,1.34-.33,2.27,11.13,1.64.23.03-.34,2.28,13.64,2,.34-2.27,6.82,1,.33-2.27,2.27.33.34-2.27,4.54.67.34-2.28,4.54.67.5-2.25,2.11.31-.33,2.28,4.54.66-.33,2.28,2.27.33-.67,4.55-2.27-.34-.33,2.28-2.28-.34-.33,2.28-2.27-.34-.67,4.55-2.28-.34-.33,2.28-2.28-.34-.33,2.28-2.27-.34-.33,2.28-2.28-.34-.21,1.46-1.03-.52h-2.38v2.39h-2.39v2.38h-2.38v2.39h-2.39v.1h-.03v2.28h-2.36v.1h-.03c.01.73.19,1.86-.59,2.24l-1.31.05h-2.83v.1h-.04v2.29h-2.35s0,.09,0,.09h-.03v2.39h-2.39l-.04,2.05-4.73.33v2.39h-2.38v2.39h-2.39c.01.72.19,1.85-.59,2.23l-4.18.15v2.39h-2.39c-.05.81.29,1.82-.44,2.38h-4.32v2.39h-2.39c-.05.81.29,1.82-.45,2.38h-4.32v2.39h-2.39c0,.72.19,1.85-.59,2.23l-4.18.15v2.39s-2.38,0-2.38,0l-.2,1.81c-.69.5-1.49.61-2.3.61-.59,0-1.19-.05-1.77-.05-.17,0-.34,0-.5.01v2.39h-2.37c.05,2.06-1.8,2.44-3.51,2.44-.45,0-.89-.03-1.28-.06l-.14,1.8c-1.21.99-2.14-.05-2.71,1.75-18.7,10.69-37.66,21.88-57.68,29.99-5.18,2.1-17.73,6.83-24.36,6.83-.73,0-1.39-.06-1.96-.18-1.67-.37-1.55-1.89-1.33-3.3,1.1-7.04,17-19.04,22.79-23.42,28.34-21.42,76.49-49.08,94.63-82.21l-.25-.04-1.87-.27-.33,2.28-2.28-.34-.33,2.27-4.55-.67-.67,4.55-4.95-.73-2.27-.33-4.95-.73c-6.87,6.24-13.91,10.45-19.04,14.28-10.56,7.89-21.61,15.13-32.27,22.89-16.89,12.29-45.97,33.28-50.74,54.5-3.12,13.86,2.56,17.98,10.73,17.98,7.55,0,17.22-3.51,24.08-6.13,21.18-8.08,41.33-19.91,60.85-31.3l1.99.08c-.02-2.63,2.86-2.33,4.77-2.39.03-.57-.12-1.17.06-1.73l2.32-.66v2.39h-.41c-.47,0-.95-.01-1.42-.01-.18,0-.37,0-.55.01-.05.79.03,1.59,0,2.39h-1.2c.57,1.08-1.65,2.73-2.52,3.58-11.78,11.47-23.99,22.52-35.66,34.11-35.68,8.87-68.99,26.07-98.96,46.98v-1.2l-2.26-.27-.13-2.11h-2.39v-2.39h-2.38s0-2.38,0-2.38h-2.39v-2.39c-.1,0-.21-.01-.33-.01-.47,0-.99.04-1.5.04-.97,0-1.93-.13-2.52-.89-.45-.6-.32-1.26-.48-1.45-.11-.14-1.17-.31-1.63-.77-.47-.47-.54-1.37-.78-1.6-.2-.19-.77-.17-1.13-.51-.87-.82-1.37-1.93-1.17-3.15l-.74.55c-1.53-1.06-1.85-2.32-1.65-4.13l-1.04.89c-4.44-5.66-8.15-11.97-10.92-18.65-1.9.16-3.86.26-5.9.26-.37,0-.72-.01-1.08-.02.62,1.61,1.27,3.22,1.99,4.8,2.76,6.06,6.09,10.61,9.53,16.13.27.43.18,1.11.34,1.29.12.14.67.08.96.37,1.41,1.44,1.55,2.45,1.35,4.47h2.39v2.39l2.11.12.28,2.26,2.1.13.28,2.26,2.26.27.13,2.11,2.25.28.13,2.11h2.39s0,2.38,0,2.38h2.38v2.39h2.39c-.04.74.2,1.59-.28,2.25-.53.74-4.46,3.4-5.53,4.31-10.29,8.73-29.5,26.1-28.49,40.7.41,6.05,4.67,7.98,9.87,7.98,6.21,0,13.75-2.74,17.77-4.51,15.76-6.95,29.84-18.63,43.34-29.11l3.87-.16v2.39h7.15v2.38h9.54v2.39h11.93v2.38h23.85v2.39h14.31v-2.39h23.86v-2.38h11.92v-2.39h9.54v-2.38h7.16v-2.39h7.16v-2.38h7.15v-2.39h4.77v-2.38h7.16v-2.39h4.77v-2.38h4.77v-2.39h2.39v-2.39s4.76,0,4.76,0v-2.38h2.39v-2.39h4.77v-2.38h2.39v-2.39s2.38.01,2.38.01v-2.39h4.77v-2.39h2.39s-.01-2.38-.01-2.38h2.39v-2.39h2.39s-.01-2.38-.01-2.38h2.39v-4.77h2.39v-2.39h2.38v-2.38h2.39v-4.77h2.38v-7.16h-7.15v2.39h-2.39v4.77h-2.39v2.38s-2.38,0-2.38,0v4.77h-2.39v2.39s-2.38,0-2.38,0v2.38h-2.39v2.39s-2.38,0-2.38,0v2.39h-2.39s0,2.38,0,2.38h-4.77v2.39s-2.38-.01-2.38-.01v2.39h-2.39v2.38h-4.77v2.39s-2.38,0-2.38,0v2.38h-4.77v2.39h-4.77v2.38h-4.77v2.39h-4.77v2.39h-7.16v2.38h-7.15v2.39h-7.16v2.38h-7.16v2.39h-11.92v2.38h-14.31v2.39h-42.94v-2.39h-14.31v-2.38h-9.54v-2.39h-11.63l1.34-1.79c17.88-15.04,35.02-30.95,52.03-46.95,2.36-2.22,11.39-11.78,13.42-12.53,1.92-.71,6.63-1.32,8.83-1.6,4.08-.51,8.36-.73,12.69-.73,7.07,0,14.27.57,20.93,1.33,10.82,1.22,21.38,3.75,31.79,6.82.21-1.8,1.15-3.42,1.58-5.15.07-.28.34-.42-.09-.66-17.35-5.76-36.26-8.95-54.75-8.95-2.19,0-4.36.04-6.54.13-1.75.08-3.59.5-5.34.63-.13,0-.36.04-.57.04-.28,0-.53-.07-.48-.35l30.42-28.5,1.78.47v-2.39h2.39s.12-2.1.12-2.1l2.26-.28.13-2.11,2.26-.27.26-1.97c.29-.36.78-.44,1.22-.44.32,0,.62.04.78.04.06,0,.1,0,.12-.02.14-.15-.08-2.5,1.66-2.5.21,0,.45.04.73.12-.32-2.12,1.47-2.44,3.23-2.44.54,0,1.07.03,1.54.05v-2.39s2.38,0,2.38,0v-2.38h2.39v-2.39s2.38,0,2.38,0v-2.38h2.39v-2.39s2.38,0,2.38,0l.13-2.1,2.26-.28.28-2.26,2.1-.13v-2.38h2.39c-.07-1.89-.34-4.81,1.92-4.81.14,0,.3.01.46.04l.13-2.11,2.26-.28v-2.39h2.38s0-.1,0-.1h2.42v-2.38h2.39v-2.39s2.38,0,2.38,0v-2.39h4.77v-2.39h2.39s0-2.38,0-2.38h2.38v-2.39h2.39v-1.02l2.06.31.24-1.67h.08v-.61s2.29.34,2.29.34l.67-4.55,2.27.34.33-2.28,2.28.34.33-2.28,2.27.34.67-4.55,2.28.33.33-2.27,2.27.33.67-4.54,2.28.33.33-2.27,2.27.33.34-2.27,2.27.33.67-4.54,2.27.33.33-2.28,2.28.34.33-2.27,4.55.67,1.34-9.1,9.09,1.34,1.25-8.5c.24-1.51.52-3.69.77-5.19h-.01l.34-2.28.99-6.77ZM396.06,231.1l-2.27-.34c.1-.75.23-1.52.33-2.27-1.5-.26-3.04-.42-4.54-.67.1-.76.23-1.52.33-2.27-8.32-1.29-16.68-2.41-25-3.68l.33-2.27h.01s6.81,1,6.81,1l.34-2.28,2.55.38,8.81,1.3-.33,2.27,6.82,1c-.11.76-.24,1.52-.34,2.28,1.51.23,3.04.43,4.55.66-.1.76-.24,1.52-.34,2.28.76.13,1.53.21,2.28.33l-.34,2.28ZM204.76,424.63c-14.21,9.93-30.02,24.31-47.04,28.98-1.87.52-5.89,1.37-8.61,1.37-.76,0-1.42-.06-1.9-.22-1.19-.39-.95-1.63-.89-2.71.66-11.85,17.66-27.2,26.4-34.42,2.73-2.25,5.63-4.3,8.35-6.56l.14,2.38h4.77v2.39h2.39s0,2.38,0,2.38h4.77v2.39h4.77v2.38h7.16l-.31,1.64ZM210.14,419.71v-1.49h-2.69v-2.38h-4.77v-2.39h-4.77v-2.39h-4.77v-2.38h-4.77l-.15-2.7c25.28-17.3,52.82-31.63,82.14-40.83-19.51,18.77-39.1,37.62-60.22,54.56Z"/>
      <polygon class="cls-1" points="419.59 197.4 415.09 196.74 417.09 183.1 421.64 183.77 420.97 188.31 425.48 188.97 423.47 202.61 418.93 201.94 419.59 197.4"/>
      <path class="cls-1" d="M455.32,207.25l-9.09-1.34c-.24,1.51-.42,3.04-.67,4.55,3.02.42,6.05.91,9.07,1.33v.04s4.54.67,4.54.67c.24-1.51.42-3.04.67-4.55-1.51-.21-3.02-.45-4.53-.67v-.04Z"/>
      <path class="cls-1" d="M445.55,210.44l-9.09-1.34c-.24,1.51-.42,3.04-.67,4.55,1.52.21,3.04.44,4.56.67v.02s4.54.67,4.54.67c.24-1.51.42-3.04.67-4.55,0,0-.01,0-.01,0v-.02Z"/>
      <path class="cls-1" d="M482.44,85.85l1.34-9.09,27.28,4.01,5.35-36.37-27.28-4.01,1.34-9.09,9.09,1.34,2.67-18.19-18.18-2.67,1.34-9.09-18.19-2.67-1.34,9.09-9.09-1.34-2.67,18.19-9.09-1.34,1.34-9.09-27.28-4.01-2.67,18.19-9.09-1.34-1.34,9.09,9.09,1.34-1.34,9.09,18.18,2.67-1.34,9.09-9.09-1.34-1.34,9.09-9.09-1.34-2.67,18.19,9.09,1.34-1.34,9.09,27.28,4.01,1.34-9.09,9.09,1.34-1.34,9.09,9.09,1.34-1.34,9.09,9.09,1.34,1.34-9.09c6.05.91,12.13,1.75,18.18,2.67.88-6.06,1.79-12.13,2.67-18.19l-9.09-1.34ZM466.93,64.99l-18.19-2.67,2.67-18.19,18.19,2.67-2.67,18.19Z"/>
      <path class="cls-1" d="M448.48,127.31c-.2,1.51-.46,3.03-.67,4.55l4.55.67-.67,4.55c1.51.24,3.04.42,4.55.67.43-3.03.9-6.07,1.34-9.09-3.03-.45-6.07-.88-9.09-1.34Z"/>
      <path class="cls-1" d="M573.36,99.22l1.34-9.09-45.46-6.68-1.34,9.09-9.09-1.34-2.67,18.19-9.09-1.34c-.91,6.05-1.75,12.13-2.67,18.19,3.03.44,6.07.89,9.09,1.34l1.34-9.09,27.28,4.01,1.34-9.09,9.09,1.34,1.34-9.09,27.28,4.01,1.34-9.09-9.09-1.34Z"/>
      <path class="cls-1" d="M504.37,126.24c-.14.91-.27,1.82-.4,2.74l-.21,1.41c-.24,1.65-.48,3.3-.73,4.95l-9.09-1.34-1.34,9.09c-3.03-.42-6.06-.91-9.09-1.33l-2.01,13.64-4.54-.67-.67,4.55,4.54.67-.66,4.54h0s-4.55-.66-4.55-.66l-.67,4.54-4.54-.67-1.34,9.1-9.09-1.34-1.34,9.09-4.55-.67-1.33,9.1c-1.52-.21-3.04-.47-4.55-.67,1.15-7.57,2.2-15.17,3.34-22.73l4.55.66,2-13.64-4.54-.66c.87-6.07,1.81-12.13,2.67-18.19,1.51.24,3.04.43,4.55.67l-1.34,9.09,4.55.67-2.68,18.19,4.55.66.67-4.54,4.54.67,2.01-13.64,4.55.66,1.33-9.09c.38.05.75.11,1.12.16l-5.63-.89,1.3-9.03,9.1,1.33c1.32-9.09,2.68-18.19,4.01-27.28,3.02.46,6.07.88,9.09,1.34l-2.67,18.19,9.09,1.33Z"/>
      <path class="cls-1" d="M443,196.18l-4.55-.67-1.34,9.09,4.55.67.67-4.55,4.55.67c.46-3.02.88-6.07,1.34-9.09-1.51-.2-3.03-.46-4.55-.67l-.67,4.55Z"/>
      <path class="cls-1" d="M444.6,122.1l.67-4.55-18.18-2.67-.67,4.55,13.64,2.01-.67,4.55c3.02.46,6.07.88,9.09,1.34.2-1.51.46-3.03.67-4.55l-4.55-.67Z"/>
      <path class="cls-1" d="M352.87,145.77l9.09,1.34-.67,4.55,9.09,1.34-.67,4.55-4.55-.67-.67,4.55-4.55-.67-2.01,13.64,4.55.67-.67,4.55,9.09,1.34-.67,4.55,4.55.67.67-4.55,4.55.67.67-4.55,4.55.67,2.01-13.64,4.55.67-1.34,9.09,4.55.67-.67,4.55,4.55.67-.67,4.55,13.64,2.01.67-4.55,4.57.67.67-4.55,4.52.67,1.34-9.09-4.52-.67h0s-4.55-.67-4.55-.67h0s-.02,0-.02,0l1.34-9.09,4.55.67.67-4.55,4.55.67.67-4.55,9.09,1.34.67-4.55-4.55-.67,2.01-13.64-4.55-.67.67-4.55-18.19-2.67.67-4.55-4.55-.67,2.01-13.64-4.55-.67.67-4.55-27.28-4.01-2.67,18.19,4.55.67c-.2,1.51-.47,3.03-.67,4.55,1.51.23,3.04.44,4.55.67l-.67,4.55-4.55-.67c.2-1.51.47-3.03.67-4.55-7.56-1.17-15.17-2.19-22.73-3.34l-2.01,13.64-4.55-.67-1.34,9.09,4.55.67-.67,4.55ZM382.82,131.59l9.09,1.34.67-4.55,4.55.67-.67,4.55,9.09,1.34-.67,4.55-4.55-.67-1.34,9.09-4.55-.67-.67,4.55-9.09-1.34.67-4.55-4.55-.67,2.01-13.64Z"/>
      <path class="cls-1" d="M186.67,334.61h1.1l-3.31,20.74h21.18l12.58-79.21c4.19-26.04-8.6-37.73-40.82-37.73s-48.98,11.47-52.29,33.98l-.66,4.41h21.18l.44-2.65c2.21-13.68,12.36-19.2,28.46-19.2,16.99,0,24.49,6.18,21.84,21.62l-.66,3.75c-1.1,5.74-5.08,7.94-17.21,9.49l-24.93,3.31c-26.92,3.53-43.69,15.67-43.69,37.07,0,19.64,13.9,27.36,32,27.36,26.7,0,40.82-16.33,44.79-22.95ZM132.39,326.44c0-11.25,9.05-17.43,22.73-19.42l20.3-2.65c9.49-1.32,15-2.65,17.21-5.74l-2.65,17.21c-1.54,9.93-16.55,25.16-38.39,25.16-12.14,0-19.2-4.63-19.2-14.56Z"/>
      <path class="cls-1" d="M223.99,267.73c-.03,2.87-.31,5.93-.83,9.19l-.81,5.12c18.06-9.63,33.91-22.36,42.77-37.07,7.36-12.22,14.08-33.71-6.27-36.61-17.14-2.45-39.91,7.18-54.35,15.94-4.91,2.98-9.69,6.28-14.31,9.83,3.18.39,6.14.94,8.86,1.65,16.17-11.75,37.83-22.42,57.75-20.89,2.97.23,8.24,1.74,8.78,5.23,1.28,8.34-7.21,19.44-12.65,25.18-7.16,7.56-17.4,15.35-28.93,22.43Z"/>
      <path class="cls-1" d="M7.91,179.98c.07,0,.13-.01.19-.04.88-.22,0-.88-.22-1.77-1.33-2.65-2.21-6.19-1.77-9.07,1.33-9.73,10.61-15.04,22.33-16.58-1.11,21.67,13.49,31.18,29.41,32.06.88.03,1.78.05,2.69.05,11.86,0,25.87-2.68,37.78-8.23,31.84,19.68,57.05,34.27,85.13,34.27,21.72,0,31.73-11.3,37.55-21.27.1,0,.21.01.31.01,10.96,0,23.76-4.97,36.31-13.97,12.99-9.44,23.91-18.3,33.94-27.15,1.48-1.18,2.66-3.25,1.48-4.43-.35-.35-.75-.56-1.23-.56-.73,0-1.66.49-2.91,1.74-7.97,7.38-24.5,21.54-37.48,29.81-9.47,6.15-20.26,10.22-27.21,10.22-1.72,0-3.2-.25-4.37-.77-10.62-5.02,8.26-30.1,27.45-47.52,1.29.68,3.27,1,5.7,1,9.2,0,24.87-4.55,34.44-11.33,11.22-8.26,18.3-20.36,8.56-25.97-1.41-.81-3.35-1.19-5.72-1.19-14.95,0-46.71,15.29-66.59,35.42-16.23,16.53-19.77,31.87-19.77,38.37,0,8.98,5.07,15.27,13.43,16.13-7.45,7.57-17.99,9.97-31.45,9.97-21.89,0-59.26-14.81-80.93-25.87,8.18-4.2,17.91-9.95,26.98-16.58,19.02-3.54,39.36-15.48,55.28-30.07,19.9-18.13,29.41-37.15,31.62-56.38,26.31-28.3,47.1-45.33,69.65-45.33,9.29,0,20.34,2.43,26.53,13.71,1.6,3.01,1.57,4.93,2.54,4.93.1,0,.21-.02.33-.06,1.77-.44,3.32-3.32,2.43-6.85-2.65-9.95-17.25-14.59-30.51-14.59-22.11,0-46.65,10.17-73.19,33.83-2.65-10.17-11.94-21.23-29.63-23.88-4.66-.77-9.52-1.15-14.54-1.15-29.54,0-64.55,13.29-95.36,39.19-30.51,25.87-46.43,58.59-48.42,78.49-13.71,1.33-25.21,7.52-26.31,19.68-.22,2.87.88,7.52,3.98,10.61.57.57,1.15,1.15,1.58,1.15ZM293.22,102.84c.42,0,.75.09.98.28,3.25,2.36-3.25,10.62-12.99,18.3-11.43,9.09-24.23,13.84-30.16,13.84-.81,0-1.48-.09-2.01-.26,13.52-13.24,38.13-32.16,44.17-32.16ZM183.88,124.88c-12.6,11.5-30.07,22.33-46.21,27.42,13.93-10.61,29.63-24.76,44.66-41.35,12.6-14.15,22.55-25.87,32.72-36.7-3.76,21.01-15.26,36.26-31.18,50.63ZM85.27,76.68c30.74-25.81,61.83-42.32,90.46-42.32,3.49,0,6.95.25,10.37.75,16.58,2.43,26.09,13.05,27.86,23.22-14.37,12.16-28.97,27.64-45.99,46.21-17.47,19.02-34.49,38.25-49.31,50.41-.18,0-.37,0-.55,0-17.45,0-32.11-10.4-26.2-31.4,4.64-17.03,21.01-35.16,38.47-46.88,12.6-8.18,28.08-15.7,39.8-15.7,2.65,0,5.53.22,7.52,1.11.72.36,1.43,1,1.91,1,.11,0,.21-.04.3-.12.44-.66-.44-2.21-1.55-2.65-1.77-.88-4.86-1.77-8.84-1.77-13.93,0-31.62,5.53-44.44,14.37-17.91,12.16-33.39,30.96-37.59,49.97-4.86,21.67,9.95,33.61,27.64,34.94-5.97,4.42-11.72,8.4-17.47,11.72-3.1-1.55-5.97-3.1-7.96-4.2-12.16-6.63-31.18-16.14-49.53-17.03-1.55-.11-2.99-.17-4.31-.17s-2.54.06-3.65.17c3.54-18.35,24.1-47.54,53.07-71.64ZM31.76,152.08c1.66,0,3.26-.06,4.92-.06s3.37.06,5.25.28c14.15,1.11,26.98,7.3,42.23,15.92,2.43,1.55,5.75,3.1,7.96,4.42-10.29,5.63-20.75,9.05-31.23,9.05-1.45,0-2.91-.07-4.37-.2-13.49-1.11-26.09-11.28-24.76-29.41Z"/>
      <path class="cls-1" d="M135.16,292.19c-8.77-1.98-17.79-5.79-23.27-12.31-11.41-13.55,1.83-36.96,11.19-48.44,6.81-8.35,15.25-15.99,24.79-22.85-2.34-.89-4.69-1.86-7.06-2.9-7.23,5.48-13.86,11.43-19.69,17.84-12.81,14.07-28.84,42.32-15.04,60.07,4.68,6.01,11.45,10.3,18.79,13.15,3.09-1.75,6.52-3.27,10.28-4.56Z"/>
      <path class="cls-1" d="M226.61,167.85c-2.06,3.23-3.3,5.74-4.01,7.61,8.72-2.11,17.42-3.69,25.91-4.7.07-.05.15-.09.22-.14,3.35-2.13,6.94-4.67,10.54-7.37-10.68.69-21.66,2.24-32.66,4.59Z"/>
      <path class="cls-1" d="M174.01,193c8.5-4.21,17.4-7.9,26.48-11.04-.77-1.98-1.28-4.14-1.48-6.47-12.15,4.15-23.97,9.28-35.03,15.31,3.46.89,6.83,1.63,10.03,2.19Z"/>
      <path class="cls-1" d="M532.27,238.4c-6.67,0-12.5,1.13-17.56,2.94l-2.44,16.62c2.58-.53,5.28-.81,8.09-.81,18.31,0,25.82,11.25,22.29,31.77l-10.37,66.42h22.29l11.25-71.49c5.08-32.44-10.81-45.45-33.54-45.45Z"/>
      <path class="cls-1" d="M486.76,267.9l.67-4.55-4.55-.67.67-4.55-8.69-1.28-4.95-.73.67-4.55-1.79-.26-16.4,104.03h22.29l11.03-69.51c1.46-6.81,4.2-12.48,7.93-16.93l-1.93-.28-4.95-.73Z"/>
      <path class="cls-1" d="M508.22,219.55l-26.53-3.9.67-4.54-8.9-1.31c.23-1.47.41-2.96.65-4.42-1.51-.21-3.03-.45-4.55-.67v.03s-9.05-1.33-9.05-1.33c-.24,1.51-.42,3.04-.67,4.55,3.03.42,6.06.91,9.09,1.34v-.03s4.31.63,4.31.63c-.23,1.47-.41,2.96-.65,4.42,1.27.18,2.53.37,3.8.56l-.67,4.55-4.55-.67-.67,4.55-4.55-.67-2.01,13.64,4.55.67-.67,4.55,4.55.67-.67,4.55,4.55.67-.67,4.55,13.64,2.01-.67,4.55,4.55.67-.67,4.55,13.64,2,6.02-40.92-4.55-.67.67-4.55Z"/>
      <path class="cls-1" d="M381,251.69l2.28.34.33-2.28,2.27.34.33-2.28,2.28.34.33-2.27,2.28.34.55-3.74-1.47-.22-.33,2.28-2.28-.34-.33,2.27-4.95-.73-1.87-.28-.33,2.27-4.95-.73-2.09-.31c-12.77,7.37-22.5,19.12-28.16,33.06l3.02-.11-.03-2.4h2.44s0-2.38,0-2.38h2.39s0-2.03,0-2.03l4.65-.33h.18s.05-2.4.05-2.4h2.3s.01-2.38.01-2.38h0v-.11h2.37s.01-2.13.01-2.13h0v-.24h4.72v-2.29s.05,0,.05,0v-.11h2.37s.01-2.28.01-2.28h0v-.11h2.38s0-2.39,0-2.39h2.39s0-2.39,0-2.39h2.39s0-2.38,0-2.38h4.17s.24-1.62.24-1.62Z"/>
      <path class="cls-1" d="M422.86,241.18l-.18,1.2-2.27-.34-.33,2.27-2.28-.34-.67,4.55-2.27-.33-.33,2.28-2.28-.34-.33,2.28-2.28-.34-.67,4.55-2.27-.33-.17,1.14c13.88,1.66,24.31,11.21,24.31,31.72,0,24.93-15.22,49.65-41.26,49.65-16.11,0-28.91-9.27-28.91-32.21,0-2.54.17-5.08.49-7.6l-1.1.07-.25,2-2,.25-.16,2.66h-2.08s0,2.39,0,2.39h-2.39s0,2.39,0,2.39h-2.39s0,2.39,0,2.39h-2.39s0,2.39,0,2.39h-2.39s0,2.58,0,2.58l-4.32-.17.65,4.3-2.26-.64c4.18,26.34,23.94,37.99,46.84,37.99,39.28,0,65.53-33.1,65.53-70.39,0-25.58-12.38-40.28-29.61-45.98Z"/>
      <path class="cls-1" d="M273.86,169.45c.98.02,1.96.05,2.92.1,24.56,1.06,62.33,11.59,62.88,41.22l.91.13.33-2.28,2.28.34.33-2.27,4.55.67.29-2.01c-5.35-26.63-38.01-40.32-66.58-42.21-2.6,2.12-5.23,4.23-7.91,6.32Z"/>
    </g>
  </g>
</svg>