<?xml version="1.0" encoding="UTF-8"?>
<svg id="Layer_2" data-name="Layer 2" xmlns="http://www.w3.org/2000/svg" viewBox="0 0 194.71 169.81">
  <defs>
    <style>
      .cls-1 {
        fill: #fff;
      }
    </style>
  </defs>
  <g id="Calque_3" data-name="Calque 3">
    <path class="cls-1" d="M184.28,86l-1,7.56c2.73,1.52,4.73,3.72,4.38,6.63-1.11,9.11-13.27,18.24-20.65,22.65-16.38,9.78-42.09,17.72-66.92,21.49l.66-4.51,2.56.38.37-2.57,2.56.38.75-5.12,2.56.38.37-2.57,2.56.38.37-2.57,2.56.38.75-5.12,2.56.38.37-2.57,2.56.38.38-2.56,5.12.75,1.51-10.25,10.25,1.51,1.41-9.58h0c.27-1.7.58-4.15.86-5.85,0,0,0,0,0,0l1.5-10.19-5.12-.75-1.51,10.25c-1.7-.22-3.41-.52-5.12-.75l.76-5.14,5.09.75,2.26-15.37,5.12.75-1.51,10.25,5.12.75-.75,5.12,5.12.75-.75,5.12,15.37,2.26.75-5.13,5.15.76.75-5.12,5.1.75,1.51-10.25-5.1-.75h0s-5.12-.76-5.12-.76h0s-.03,0-.03,0l1.51-10.25,5.12.75.75-5.12,5.12.75.75-5.12,10.25,1.51.75-5.12-5.12-.75,2.26-15.37-5.12-.75.75-5.12-20.5-3.01.75-5.12-5.12-.75,2.26-15.37-5.12-.75.75-5.13-30.74-4.52-3.01,20.5,5.12.75c-.23,1.71-.53,3.42-.75,5.12,1.7.26,3.42.49,5.12.75l-.75,5.12-5.12-.75c.23-1.71.53-3.42.75-5.12-8.52-1.32-17.09-2.46-25.62-3.77l-2.26,15.37-5.12-.75-1.51,10.25,5.12.75-.75,5.12,10.25,1.51-.75,5.12,10.25,1.51-.75,5.13-5.12-.75-.75,5.12-5.12-.75-2.26,15.37,5.12.75-.75,5.12,10.25,1.51-.75,5.12,5.12.75.75-5.12h.03s-.01.09-.01.09l5.11.75-.74,5.06-10.25-1.51-2.64,17.94-2.56-.38-.37,2.57-2.56-.38-.75,5.12-5.12-.75.75-5.12-2.56-.38.38-2.56-2.56-.38.75-5.12-2.56-.38.38-2.57-2.56-.37.75-5.13-2.56-.37.38-2.56-5.12-.75.38-2.56-5.12-.75.38-2.56-25.62-3.77-.38,2.56-5.12-.75-.38,2.56-5.12-.75-.38,2.56-2.56-.38-.38,2.56-5.12-.75-.38,2.56-2.56-.38-.37,2.57-2.56-.38-.75,5.12-2.56-.38-.37,2.57-2.56-.38-.37,2.57-2.56-.38-.75,5.12-2.56-.38-.37,2.57-2.56-.38-.75,5.12-2.56-.38-1.13,7.69,2.56.38.75-5.13,5.12.75.38-2.56,2.56.38.38-2.56,7.69,1.13.38-2.56,10.25,1.51-.38,2.56,12.81,1.88-.38,2.56,15.37,2.26.38-2.56,7.69,1.13.38-2.56,2.56.38.38-2.56,5.12.75.38-2.56,5.12.75.56-2.54,2.38.35-.38,2.56,5.12.75-.38,2.56,2.56.38-.75,5.12-2.56-.38-.37,2.57-2.56-.38-.37,2.57-2.56-.38-.75,5.13-2.56-.38-.37,2.57-2.56-.38-.37,2.57-2.56-.38-.37,2.57-2.56-.38-.13.92c-11.24.87-21.8.72-30.63-.7-2.74-.44-5.4-1.28-8.1-1.55,4.38-5.25,9.23-10.2,14.42-14.82l-9.58-1.17c-4.24,4.2-8.22,8.65-11.87,13.33-11.07-4.39-24.12-12.46-29.21-23.68-7.96-17.54,12.79-38.17,25.97-47.44,15.79-11.11,35.63-18.91,56.99-23.7l1.28-7.59c-21.18,4.5-41.14,11.89-57.99,22.42C17.85,72.24-7.26,97.11,1.98,119.75c5.37,13.17,18.68,22.86,31.47,28.23-4.47,6.39-8.23,13.14-11.19,20.16l7.24,1.67c2.9-6.7,6.48-13.11,10.55-19.11.42-.34,9.11,2.43,10.54,2.76,38.42,8.76,99.73.4,129.27-27.38,11.27-10.59,24.55-31.01,4.41-40.08ZM134.1,37.38l10.25,1.51.75-5.12,5.12.75-.75,5.12,10.25,1.51-.75,5.13-5.12-.75-1.51,10.25-5.12-.75-.75,5.12-10.25-1.51.75-5.12-5.12-.75,2.26-15.37ZM96.45,115.63l-2.56-.38c.12-.85.27-1.71.38-2.56-1.7-.29-3.43-.48-5.13-.75.12-.85.27-1.71.38-2.56-9.38-1.45-18.8-2.71-28.18-4.14l.38-2.56,7.69,1.13.38-2.56,12.81,1.88-.38,2.56,7.69,1.13c-.12.85-.27,1.71-.38,2.56,1.7.26,3.42.49,5.13.75-.12.85-.27,1.71-.38,2.56.85.14,1.72.24,2.56.38l-.38,2.57ZM97.42,144.56l.48.07c-.17.02-.34.05-.5.07l.02-.14Z"/>
  </g>
</svg>