<svg width="16" height="40" viewBox="0 0 16 40" fill="none" xmlns="http://www.w3.org/2000/svg">
<path d="M4.66671 30.6667L8.00004 34L11.3334 30.6667" stroke="white" stroke-width="2" stroke-linecap="round" stroke-linejoin="round"/>
<path d="M8.16211 0.00976562C12.2151 0.21542 15.4383 3.56688 15.4385 7.6709V16.4385L15.4277 16.833C15.2223 20.8863 11.8709 24.1094 7.7666 24.1094L7.37207 24.0996C3.44966 23.9006 0.304238 20.7555 0.105469 16.833L0.0957031 16.4385V7.6709C0.0958794 3.43451 3.53024 0.000272417 7.7666 0L8.16211 0.00976562ZM7.7666 2C4.6348 2.00027 2.09588 4.53908 2.0957 7.6709V16.4385C2.09577 19.5704 4.63474 22.1091 7.7666 22.1094C10.8987 22.1094 13.4384 19.5706 13.4385 16.4385V7.6709C13.4383 4.53892 10.8986 2 7.7666 2ZM7.76758 4.38379C8.37261 4.38404 8.86328 4.87441 8.86328 5.47949V7.6709C8.86328 8.27598 8.37261 8.76635 7.76758 8.7666C7.16233 8.7666 6.6709 8.27614 6.6709 7.6709V5.47949C6.6709 4.87425 7.16233 4.38379 7.76758 4.38379Z" fill="#F9F9F9"/>
</svg>
