{
  "asset": {
    "generator": "glTF-Transform v4.1.3",
    "version": "2.0"
  },
  "accessors": [
    {
      "type": "SCALAR",
      "componentType": 5123,
      "count": 2892,
      "bufferView": 0,
      "byteOffset": 0
    },
    {
      "type": "VEC3",
      "componentType": 5126,
      "count": 1918,
      "max": [
        0.44577157497406006,
        0.8041079044342041,
        13.988287925720215
      ],
      "min": [
        -0.9655025005340576,
        -0.5087052583694458,
        -14.311470985412598
      ],
      "bufferView": 1,
      "byteOffset": 0
    },
    {
      "type": "VEC3",
      "componentType": 5126,
      "count": 1918,
      "bufferView": 1,
      "byteOffset": 12
    },
    {
      "type": "VEC2",
      "componentType": 5126,
      "count": 1918,
      "bufferView": 1,
      "byteOffset": 24
    }
  ],
  "bufferViews": [
    {
      "buffer": 0,
      "byteOffset": 0,
      "byteLength": 5784,
      "target": 34963
    },
    {
      "buffer": 0,
      "byteOffset": 5784,
      "byteLength": 61376,
      "byteStride": 32,
      "target": 34962
    }
  ],
  "samplers": [
    {
      "magFilter": 9729,
      "minFilter": 9987,
      "wrapS": 10497,
      "wrapT": 10497
    }
  ],
  "textures": [
    {
      "sampler": 0,
      "extensions": {
        "EXT_texture_webp": {
          "source": 0
        }
      }
    }
  ],
  "images": [
    {
      "name": "TrunkThin_Height",
      "mimeType": "image/webp",
      "uri": "TrunkThin_Height.webp"
    }
  ],
  "buffers": [
    {
      "uri": "Obstacle2Tree.bin",
      "byteLength": 67160
    }
  ],
  "materials": [
    {
      "name": "Material.012",
      "doubleSided": true,
      "pbrMetallicRoughness": {
        "baseColorFactor": [
          0.06480326668529614,
          0.02732089163382382,
          0.005181516700061659,
          1
        ],
        "metallicFactor": 0.8
      },
      "normalTexture": {
        "index": 0
      }
    }
  ],
  "meshes": [
    {
      "name": "ThinTree.001",
      "primitives": [
        {
          "attributes": {
            "POSITION": 1,
            "NORMAL": 2,
            "TEXCOORD_0": 3
          },
          "mode": 4,
          "material": 0,
          "indices": 0
        }
      ]
    }
  ],
  "nodes": [
    {
      "name": "Retopo_TRONC FIN",
      "translation": [
        0.004547588527202606,
        0.5564162731170654,
        0
      ],
      "rotation": [
        -0.34221151471138,
        0.5719660520553589,
        -0.3487514555454254,
        0.6588767766952515
      ],
      "scale": [
        0.17130516469478607,
        0.1713051050901413,
        0.1713051050901413
      ],
      "mesh": 0
    }
  ],
  "scenes": [
    {
      "name": "Scene",
      "nodes": [
        0
      ]
    }
  ],
  "scene": 0,
  "extensionsUsed": [
    "EXT_texture_webp"
  ],
  "extensionsRequired": [
    "EXT_texture_webp"
  ]
}