{
  "asset": {
    "generator": "glTF-Transform v4.1.3",
    "version": "2.0"
  },
  "accessors": [
    {
      "type": "SCALAR",
      "componentType": 5123,
      "count": 3876,
      "bufferView": 0,
      "byteOffset": 0
    },
    {
      "type": "VEC3",
      "componentType": 5126,
      "count": 2502,
      "max": [
        3.208186626434326,
        3.1097402572631836,
        27.369720458984375
      ],
      "min": [
        -3.0979175567626953,
        -3.0282435417175293,
        -24.598541259765625
      ],
      "bufferView": 1,
      "byteOffset": 0
    },
    {
      "type": "VEC3",
      "componentType": 5126,
      "count": 2502,
      "bufferView": 1,
      "byteOffset": 12
    },
    {
      "type": "VEC2",
      "componentType": 5126,
      "count": 2502,
      "bufferView": 1,
      "byteOffset": 24
    }
  ],
  "bufferViews": [
    {
      "buffer": 0,
      "byteOffset": 0,
      "byteLength": 7752,
      "target": 34963
    },
    {
      "buffer": 0,
      "byteOffset": 7752,
      "byteLength": 80064,
      "byteStride": 32,
      "target": 34962
    }
  ],
  "samplers": [
    {
      "magFilter": 9729,
      "minFilter": 9987,
      "wrapS": 10497,
      "wrapT": 10497
    }
  ],
  "textures": [
    {
      "sampler": 0,
      "extensions": {
        "EXT_texture_webp": {
          "source": 0
        }
      }
    }
  ],
  "images": [
    {
      "name": "TrunkLarge_Height",
      "mimeType": "image/webp",
      "uri": "TrunkLarge_Height.webp"
    }
  ],
  "buffers": [
    {
      "uri": "ObstacleTree.bin",
      "byteLength": 87816
    }
  ],
  "materials": [
    {
      "name": "Material.009",
      "doubleSided": true,
      "pbrMetallicRoughness": {
        "baseColorFactor": [
          0.01764195448412081,
          0.008568125615105716,
          0.002428215868235294,
          1
        ],
        "metallicFactor": 0.8
      },
      "normalTexture": {
        "index": 0
      }
    }
  ],
  "meshes": [
    {
      "name": "mesh",
      "primitives": [
        {
          "attributes": {
            "POSITION": 1,
            "NORMAL": 2,
            "TEXCOORD_0": 3
          },
          "mode": 4,
          "material": 0,
          "indices": 0
        }
      ]
    }
  ],
  "nodes": [
    {
      "name": "ObstacleTree",
      "translation": [
        0,
        0.28851020336151123,
        -0.005406258162111044
      ],
      "rotation": [
        -0.49442100524902344,
        -0.5063279271125793,
        0.5054981112480164,
        0.49361082911491394
      ],
      "scale": [
        0.11458303034305573,
        0.11458303034305573,
        0.11458303034305573
      ],
      "mesh": 0
    }
  ],
  "scenes": [
    {
      "name": "Scene",
      "nodes": [
        0
      ]
    }
  ],
  "scene": 0,
  "extensionsUsed": [
    "EXT_texture_webp"
  ],
  "extensionsRequired": [
    "EXT_texture_webp"
  ]
}