{
	"asset":{
		"generator":"Khronos glTF Blender I/O v4.3.47",
		"version":"2.0"
	},
	"scene":0,
	"scenes":[
		{
			"name":"Scene",
			"nodes":[
				0
			]
		}
	],
	"nodes":[
		{
			"mesh":0,
			"name":"Retopo_TRONC.001",
			"translation":[
				0.0038748830556869507,
				0.0010714083909988403,
				-0.0002803802490234375
			]
		}
	],
	"meshes":[
		{
			"name":"mesh.001",
			"primitives":[
				{
					"attributes":{
						"POSITION":0,
						"NORMAL":1,
						"TEXCOORD_0":2
					},
					"indices":3
				}
			]
		}
	],
	"accessors":[
		{
			"bufferView":0,
			"componentType":5126,
			"count":5474,
			"max":[
				6.7485833168029785,
				15.94095516204834,
				6.498424053192139
			],
			"min":[
				-10.050647735595703,
				-0.002009575953707099,
				-10.567683219909668
			],
			"type":"VEC3"
		},
		{
			"bufferView":1,
			"componentType":5126,
			"count":5474,
			"type":"VEC3"
		},
		{
			"bufferView":2,
			"componentType":5126,
			"count":5474,
			"type":"VEC2"
		},
		{
			"bufferView":3,
			"componentType":5123,
			"count":8202,
			"type":"SCALAR"
		}
	],
	"bufferViews":[
		{
			"buffer":0,
			"byteLength":65688,
			"byteOffset":0,
			"target":34962
		},
		{
			"buffer":0,
			"byteLength":65688,
			"byteOffset":65688,
			"target":34962
		},
		{
			"buffer":0,
			"byteLength":43792,
			"byteOffset":131376,
			"target":34962
		},
		{
			"buffer":0,
			"byteLength":16404,
			"byteOffset":175168,
			"target":34963
		}
	],
	"buffers":[
		{
			"byteLength":191572,
			"uri":"TreeNaked.bin"
		}
	]
}
