{
  "asset": {
    "generator": "glTF-Transform v4.1.3",
    "version": "2.0"
  },
  "accessors": [
    {
      "type": "SCALAR",
      "componentType": 5123,
      "count": 8202,
      "bufferView": 0,
      "byteOffset": 0
    },
    {
      "type": "VEC3",
      "componentType": 5126,
      "count": 5474,
      "max": [
        6.748785018920898,
        15.94114875793457,
        6.4984235763549805
      ],
      "min": [
        -10.050647735595703,
        -0.002009575953707099,
        -10.567683219909668
      ],
      "bufferView": 1,
      "byteOffset": 0
    },
    {
      "type": "VEC3",
      "componentType": 5126,
      "count": 5474,
      "bufferView": 1,
      "byteOffset": 12
    },
    {
      "type": "VEC2",
      "componentType": 5126,
      "count": 5474,
      "bufferView": 1,
      "byteOffset": 24
    }
  ],
  "bufferViews": [
    {
      "buffer": 0,
      "byteOffset": 0,
      "byteLength": 16404,
      "target": 34963
    },
    {
      "buffer": 0,
      "byteOffset": 16404,
      "byteLength": 175168,
      "byteStride": 32,
      "target": 34962
    }
  ],
  "buffers": [
    {
      "uri": "TreeNaked.bin",
      "byteLength": 191572
    }
  ],
  "meshes": [
    {
      "name": "mesh.001",
      "primitives": [
        {
          "attributes": {
            "POSITION": 1,
            "NORMAL": 2,
            "TEXCOORD_0": 3
          },
          "mode": 4,
          "indices": 0
        }
      ]
    }
  ],
  "nodes": [
    {
      "name": "Retopo_TRONC.001",
      "translation": [
        0.0038748830556869507,
        0.0010714083909988403,
        -0.0002803802490234375
      ],
      "mesh": 0
    }
  ],
  "scenes": [
    {
      "name": "Scene",
      "nodes": [
        0
      ]
    }
  ],
  "scene": 0
}