{
  "asset": {
    "generator": "glTF-Transform v4.1.3",
    "version": "2.0"
  },
  "accessors": [
    {
      "type": "SCALAR",
      "componentType": 5123,
      "count": 3618,
      "bufferView": 0,
      "byteOffset": 0
    },
    {
      "type": "VEC3",
      "componentType": 5126,
      "count": 2312,
      "max": [
        3.540722131729126,
        3.7550978660583496,
        4.372525215148926
      ],
      "min": [
        -3.2877414226531982,
        -3.13858699798584,
        -0.03517502546310425
      ],
      "bufferView": 1,
      "byteOffset": 0
    },
    {
      "type": "VEC3",
      "componentType": 5126,
      "count": 2312,
      "bufferView": 1,
      "byteOffset": 12
    }
  ],
  "bufferViews": [
    {
      "buffer": 0,
      "byteOffset": 0,
      "byteLength": 7236,
      "target": 34963
    },
    {
      "buffer": 0,
      "byteOffset": 7236,
      "byteLength": 55488,
      "byteStride": 24,
      "target": 34962
    }
  ],
  "buffers": [
    {
      "uri": "TreeStump.bin",
      "byteLength": 62724
    }
  ],
  "materials": [
    {
      "name": "Material.001",
      "doubleSided": true,
      "pbrMetallicRoughness": {
        "baseColorFactor": [
          0.05612818896770477,
          0.024157650768756866,
          0.004776961635798216,
          1
        ],
        "roughnessFactor": 0.5,
        "metallicFactor": 0
      }
    }
  ],
  "meshes": [
    {
      "name": "mesh",
      "primitives": [
        {
          "attributes": {
            "POSITION": 1,
            "NORMAL": 2
          },
          "mode": 4,
          "material": 0,
          "indices": 0
        }
      ]
    }
  ],
  "nodes": [
    {
      "name": "Trunk",
      "translation": [
        0.001964890630915761,
        0.0022998976055532694,
        -0.028049981221556664
      ],
      "rotation": [
        -0.7065389156341553,
        0,
        0,
        0.7076742649078369
      ],
      "scale": [
        0.6265993714332581,
        0.45639580488204956,
        0.6265990734100342
      ],
      "mesh": 0
    }
  ],
  "scenes": [
    {
      "name": "Scene",
      "nodes": [
        0
      ]
    }
  ],
  "scene": 0
}