{
  "asset": {
    "generator": "glTF-Transform v4.1.3",
    "version": "2.0"
  },
  "accessors": [
    {
      "type": "SCALAR",
      "componentType": 5123,
      "count": 3876,
      "bufferView": 0,
      "byteOffset": 0
    },
    {
      "type": "VEC3",
      "componentType": 5126,
      "count": 2502,
      "max": [
        3.2081871032714844,
        3.069462537765503,
        51.93235397338867
      ],
      "min": [
        -3.0979175567626953,
        -3.068521738052368,
        -0.03591025620698929
      ],
      "bufferView": 1,
      "byteOffset": 0
    },
    {
      "type": "VEC3",
      "componentType": 5126,
      "count": 2502,
      "bufferView": 1,
      "byteOffset": 12
    },
    {
      "type": "VEC2",
      "componentType": 5126,
      "count": 2502,
      "bufferView": 1,
      "byteOffset": 24
    }
  ],
  "bufferViews": [
    {
      "buffer": 0,
      "byteOffset": 0,
      "byteLength": 7752,
      "target": 34963
    },
    {
      "buffer": 0,
      "byteOffset": 7752,
      "byteLength": 80064,
      "byteStride": 32,
      "target": 34962
    }
  ],
  "buffers": [
    {
      "uri": "TrunkLarge.bin",
      "byteLength": 87816
    }
  ],
  "meshes": [
    {
      "name": "mesh",
      "primitives": [
        {
          "attributes": {
            "POSITION": 1,
            "NORMAL": 2,
            "TEXCOORD_0": 3
          },
          "mode": 4,
          "indices": 0
        }
      ]
    }
  ],
  "nodes": [
    {
      "name": "Retopo_GROS TRONC.001",
      "translation": [
        0,
        -0.0018434328958392143,
        -0.005406258162111044
      ],
      "rotation": [
        -0.7076863050460815,
        0,
        0,
        0.7065267562866211
      ],
      "mesh": 0
    }
  ],
  "scenes": [
    {
      "name": "Scene",
      "nodes": [
        0
      ]
    }
  ],
  "scene": 0
}