{
  "asset": {
    "generator": "glTF-Transform v4.1.3",
    "version": "2.0"
  },
  "accessors": [
    {
      "type": "VEC3",
      "componentType": 5126,
      "count": 882,
      "max": [
        1,
        0.6246278285980225,
        0.6534906029701233
      ],
      "min": [
        -1,
        -0.62459397315979,
        -0.6534739136695862
      ],
      "bufferView": 0,
      "byteOffset": 0
    },
    {
      "type": "VEC3",
      "componentType": 5126,
      "count": 882,
      "bufferView": 0,
      "byteOffset": 12
    },
    {
      "type": "VEC2",
      "componentType": 5126,
      "count": 882,
      "bufferView": 0,
      "byteOffset": 24
    }
  ],
  "bufferViews": [
    {
      "buffer": 0,
      "byteOffset": 0,
      "byteLength": 28224,
      "byteStride": 32,
      "target": 34962
    }
  ],
  "samplers": [
    {
      "magFilter": 9729,
      "minFilter": 9987,
      "wrapS": 10497,
      "wrapT": 10497
    }
  ],
  "textures": [
    {
      "sampler": 0,
      "extensions": {
        "EXT_texture_webp": {
          "source": 0
        }
      }
    },
    {
      "sampler": 0,
      "extensions": {
        "EXT_texture_webp": {
          "source": 1
        }
      }
    }
  ],
  "images": [
    {
      "name": "BigRock_Height",
      "mimeType": "image/webp",
      "uri": "BigRock_Height.webp"
    },
    {
      "name": "BigRock_Metallic-BigRock_Roughness",
      "mimeType": "image/webp",
      "uri": "BigRock_Metallic-BigRock_Roughness.webp"
    }
  ],
  "buffers": [
    {
      "uri": "Obstacle2BigRocks.bin",
      "byteLength": 28224
    }
  ],
  "materials": [
    {
      "name": "BigRocks",
      "doubleSided": true,
      "pbrMetallicRoughness": {
        "baseColorFactor": [
          0.013702083043526807,
          0.013702083043526807,
          0.013702083043526807,
          1
        ],
        "metallicRoughnessTexture": {
          "index": 1
        }
      },
      "normalTexture": {
        "index": 0
      }
    }
  ],
  "meshes": [
    {
      "name": "defaultMaterial",
      "primitives": [
        {
          "attributes": {
            "POSITION": 0,
            "NORMAL": 1,
            "TEXCOORD_0": 2
          },
          "mode": 4,
          "material": 0
        }
      ]
    }
  ],
  "nodes": [
    {
      "name": "defaultMaterial",
      "translation": [
        0.48970240354537964,
        0.23719753295907253,
        -0.01031409204006195
      ],
      "rotation": [
        -1.3002276915703023e-13,
        0.7290019383278108,
        -8.08157899235027e-14,
        0.6845116316866316
      ],
      "scale": [
        0.48200300117228473,
        0.48200274145526417,
        0.48200299766979604
      ],
      "mesh": 0
    }
  ],
  "scenes": [
    {
      "name": "Scene",
      "nodes": [
        0
      ]
    }
  ],
  "scene": 0,
  "extensionsUsed": [
    "EXT_texture_webp"
  ],
  "extensionsRequired": [
    "EXT_texture_webp"
  ]
}